<svg xmlns="http://www.w3.org/2000/svg" viewBox="0 0 1220 360">
<g transform="translate(20,20) scale(.62)">
<path d="M70 416V96h90l96 126 96-126h90v320h-90V242l-96 122-96-122v174z" fill="#00A651"/>
<circle cx="280" cy="169" r="22" fill="#00A651"/>
<path d="M251 211c16-22 39-30 62-20l40 20-18 36-33-16-29 40 45 33-23 38-69-50 43-61-17 8-35 47-33-23 43-64c11-16 26-25 44-26z" fill="#00A651"/>
<rect x="339" y="191" width="60" height="60" rx="9" fill="none" stroke="#00A651" stroke-width="14"/>
<path d="M370 191v26l-11-8-11 8v-26" fill="#00A651"/>
</g>
<text x="365" y="205" font-family="Arial, Helvetica, sans-serif" font-size="180" font-weight="800" letter-spacing="-8" fill="#00A651">mzaya</text>
<text x="370" y="290" font-family="Segoe Script, Comic Sans MS, cursive" font-size="58" font-style="italic" fill="#007D3D">Tumai Mzaya.</text>
</svg>